<svg width="20" height="20" viewBox="0 0 20 20" fill="none" xmlns="http://www.w3.org/2000/svg">
<path fill-rule="evenodd" clip-rule="evenodd" d="M13 4.00036C13 3.4448 12.5495 3.0067 12.0138 3.01577C9.52841 3.05786 7.72492 3.18988 6.4075 3.44496C5.08639 3.70075 4.3674 4.06002 3.94228 4.4683C3.61993 4.77788 3.39424 5.18539 3.24575 5.79293C3.95989 5.46978 4.83449 5.28225 5.86025 5.16826C6.97473 5.04442 8.34209 5.00036 10 5.00036C11.1313 5.00036 12.1273 5.02088 13 5.07326V4.00036ZM3.29975 13.8127C3.08833 12.8615 3 11.6245 3 10.0004C3 9.22965 3.08597 8.73248 3.23736 8.39188C3.37083 8.0916 3.57843 7.85869 3.97672 7.65954C4.41053 7.44263 5.06892 7.26851 6.08113 7.15603C7.08428 7.04456 8.36392 7.00036 10 7.00036C11.6361 7.00036 12.9157 7.04456 13.9189 7.15603C14.9311 7.26851 15.5895 7.44263 16.0233 7.65954C16.4216 7.85869 16.6292 8.0916 16.7626 8.39188C16.914 8.73248 17 9.22965 17 10.0004C17 11.6245 16.9117 12.8615 16.7003 13.8127C16.4914 14.7526 16.1758 15.3513 15.7634 15.7638C15.3509 16.1762 14.7523 16.4917 13.8124 16.7006C12.8611 16.912 11.6242 17.0004 10 17.0004C8.37583 17.0004 7.13891 16.912 6.18764 16.7006C5.24772 16.4917 4.64906 16.1762 4.23661 15.7638C3.82416 15.3513 3.50864 14.7526 3.29975 13.8127ZM1 9.93394V10.0004C1 11.6702 1.08817 13.0803 1.34738 14.2466C1.60912 15.4243 2.05835 16.4139 2.8224 17.178C3.58644 17.942 4.57604 18.3912 5.75374 18.653C6.92009 18.9122 8.33018 19.0004 10 19.0004C11.6698 19.0004 13.0799 18.9122 14.2463 18.653C15.424 18.3912 16.4136 17.942 17.1776 17.178C17.9417 16.4139 18.3909 15.4243 18.6526 14.2466C18.9118 13.0803 19 11.6702 19 10.0004C19 9.12408 18.9095 8.29775 18.5902 7.57954C18.2531 6.821 17.6959 6.25979 16.9177 5.87069C16.3764 5.60003 15.7357 5.41602 15 5.28857V4.00036C15 2.34679 13.653 0.987726 11.9799 1.01606C9.46682 1.05862 7.5215 1.19212 6.02732 1.48142C4.53683 1.77001 3.38141 2.23398 2.55693 3.02579C1.71391 3.83541 1.34191 4.86607 1.1676 6.01092C0.999932 7.1121 0.999964 8.43888 1 9.93394ZM13.5 12.0004C14.3284 12.0004 15 11.5526 15 11.0004C15 10.4481 14.3284 10.0004 13.5 10.0004C12.6716 10.0004 12 10.4481 12 11.0004C12 11.5526 12.6716 12.0004 13.5 12.0004Z" fill="white" style="fill:white;fill-opacity:1;"/>
</svg>
